<mxfile host="app.diagrams.net" agent="Mozilla/5.0 (Windows NT 10.0; Win64; x64) AppleWebKit/537.36 (KHTML, like Gecko) Chrome/135.0.0.0 Safari/537.36 Edg/135.0.0.0" version="26.2.9">
  <diagram name="Page-1" id="PEihdVFykT0yfnFdAFU1">
    <mxGraphModel dx="1126" dy="595" grid="1" gridSize="10" guides="1" tooltips="1" connect="1" arrows="1" fold="1" page="1" pageScale="1" pageWidth="827" pageHeight="1169" math="0" shadow="0">
      <root>
        <mxCell id="0" />
        <mxCell id="1" parent="0" />
        <mxCell id="J0ch18TBqbvuwSnCmzGs-23" value="" style="rounded=0;whiteSpace=wrap;html=1;strokeColor=default;dashed=1;dashPattern=12 12;" parent="1" vertex="1">
          <mxGeometry x="467" y="1215" width="300" height="335" as="geometry" />
        </mxCell>
        <mxCell id="J0ch18TBqbvuwSnCmzGs-7" value="" style="rounded=0;whiteSpace=wrap;html=1;dashed=1;dashPattern=12 12;" parent="1" vertex="1">
          <mxGeometry x="53.25" y="1215" width="300" height="335" as="geometry" />
        </mxCell>
        <mxCell id="SuRgPydzzCLbiLzEMDbJ-121" value="" style="rounded=0;whiteSpace=wrap;html=1;fontStyle=1;dashed=1;dashPattern=8 8;fillColor=#f5f5f5;fontColor=#333333;strokeColor=default;" parent="1" vertex="1">
          <mxGeometry x="476" y="549" width="150" height="80" as="geometry" />
        </mxCell>
        <mxCell id="SuRgPydzzCLbiLzEMDbJ-7" style="edgeStyle=orthogonalEdgeStyle;rounded=0;orthogonalLoop=1;jettySize=auto;html=1;exitX=1;exitY=0.5;exitDx=0;exitDy=0;entryX=0;entryY=0.5;entryDx=0;entryDy=0;endArrow=none;startFill=0;" parent="1" source="SuRgPydzzCLbiLzEMDbJ-1" target="SuRgPydzzCLbiLzEMDbJ-2" edge="1">
          <mxGeometry relative="1" as="geometry" />
        </mxCell>
        <mxCell id="SuRgPydzzCLbiLzEMDbJ-1" value="" style="rounded=0;whiteSpace=wrap;html=1;fillColor=#f5f5f5;fontColor=#333333;strokeColor=default;" parent="1" vertex="1">
          <mxGeometry x="30" y="150" width="10" height="50" as="geometry" />
        </mxCell>
        <mxCell id="SuRgPydzzCLbiLzEMDbJ-42" style="edgeStyle=orthogonalEdgeStyle;rounded=0;orthogonalLoop=1;jettySize=auto;html=1;exitX=1;exitY=0.5;exitDx=0;exitDy=0;entryX=0;entryY=0.5;entryDx=0;entryDy=0;endArrow=none;startFill=0;" parent="1" source="SuRgPydzzCLbiLzEMDbJ-2" target="SuRgPydzzCLbiLzEMDbJ-3" edge="1">
          <mxGeometry relative="1" as="geometry" />
        </mxCell>
        <mxCell id="SuRgPydzzCLbiLzEMDbJ-2" value="&lt;font style=&quot;font-size: 14px;&quot;&gt;I-Cache&lt;/font&gt;" style="rounded=1;whiteSpace=wrap;html=1;fillColor=#ffcccc;strokeColor=default;" parent="1" vertex="1">
          <mxGeometry x="50" y="155" width="80" height="40" as="geometry" />
        </mxCell>
        <mxCell id="SuRgPydzzCLbiLzEMDbJ-51" style="edgeStyle=orthogonalEdgeStyle;rounded=0;orthogonalLoop=1;jettySize=auto;html=1;exitX=1;exitY=0.5;exitDx=0;exitDy=0;entryX=0;entryY=0.5;entryDx=0;entryDy=0;endArrow=none;startFill=0;" parent="1" source="SuRgPydzzCLbiLzEMDbJ-3" target="SuRgPydzzCLbiLzEMDbJ-4" edge="1">
          <mxGeometry relative="1" as="geometry" />
        </mxCell>
        <mxCell id="SuRgPydzzCLbiLzEMDbJ-3" value="" style="rounded=0;whiteSpace=wrap;html=1;fillColor=#f5f5f5;fontColor=#333333;strokeColor=default;" parent="1" vertex="1">
          <mxGeometry x="140" y="150" width="10" height="50" as="geometry" />
        </mxCell>
        <mxCell id="SuRgPydzzCLbiLzEMDbJ-52" style="edgeStyle=orthogonalEdgeStyle;rounded=0;orthogonalLoop=1;jettySize=auto;html=1;exitX=1;exitY=0.5;exitDx=0;exitDy=0;entryX=0;entryY=0.5;entryDx=0;entryDy=0;endArrow=none;startFill=0;" parent="1" source="SuRgPydzzCLbiLzEMDbJ-4" target="SuRgPydzzCLbiLzEMDbJ-5" edge="1">
          <mxGeometry relative="1" as="geometry" />
        </mxCell>
        <mxCell id="SuRgPydzzCLbiLzEMDbJ-4" value="&lt;font style=&quot;font-size: 14px;&quot;&gt;decode&lt;/font&gt;" style="rounded=1;whiteSpace=wrap;html=1;fillColor=#cdeb8b;strokeColor=default;" parent="1" vertex="1">
          <mxGeometry x="160" y="155" width="80" height="40" as="geometry" />
        </mxCell>
        <mxCell id="SuRgPydzzCLbiLzEMDbJ-53" style="edgeStyle=orthogonalEdgeStyle;rounded=0;orthogonalLoop=1;jettySize=auto;html=1;exitX=1;exitY=0.5;exitDx=0;exitDy=0;entryX=0;entryY=0.5;entryDx=0;entryDy=0;endArrow=none;startFill=0;" parent="1" source="SuRgPydzzCLbiLzEMDbJ-5" target="SuRgPydzzCLbiLzEMDbJ-6" edge="1">
          <mxGeometry relative="1" as="geometry" />
        </mxCell>
        <mxCell id="SuRgPydzzCLbiLzEMDbJ-5" value="" style="rounded=0;whiteSpace=wrap;html=1;fillColor=#f5f5f5;fontColor=#333333;strokeColor=default;" parent="1" vertex="1">
          <mxGeometry x="250" y="150" width="10" height="50" as="geometry" />
        </mxCell>
        <mxCell id="SuRgPydzzCLbiLzEMDbJ-6" value="&lt;font style=&quot;font-size: 16px;&quot;&gt;Issue&amp;nbsp; logic&lt;/font&gt;" style="rounded=1;whiteSpace=wrap;html=1;textDirection=vertical-rl;direction=west;flipV=1;flipH=1;arcSize=15;labelPosition=center;verticalLabelPosition=middle;align=center;verticalAlign=middle;labelBorderColor=none;rotation=180;fillColor=#e1d5e7;strokeColor=default;" parent="1" vertex="1">
          <mxGeometry x="280" y="85" width="30" height="180" as="geometry" />
        </mxCell>
        <mxCell id="SuRgPydzzCLbiLzEMDbJ-77" style="edgeStyle=orthogonalEdgeStyle;rounded=0;orthogonalLoop=1;jettySize=auto;html=1;exitX=1;exitY=0.5;exitDx=0;exitDy=0;entryX=0;entryY=0.5;entryDx=0;entryDy=0;" parent="1" source="SuRgPydzzCLbiLzEMDbJ-13" target="SuRgPydzzCLbiLzEMDbJ-73" edge="1">
          <mxGeometry relative="1" as="geometry" />
        </mxCell>
        <mxCell id="SuRgPydzzCLbiLzEMDbJ-13" value="&lt;font style=&quot;font-size: 14px;&quot;&gt;Issue&lt;br&gt;queue&lt;/font&gt;" style="rounded=1;whiteSpace=wrap;html=1;fillColor=#b1ddf0;strokeColor=default;" parent="1" vertex="1">
          <mxGeometry x="320" y="85" width="60" height="40" as="geometry" />
        </mxCell>
        <mxCell id="SuRgPydzzCLbiLzEMDbJ-71" style="edgeStyle=orthogonalEdgeStyle;rounded=0;orthogonalLoop=1;jettySize=auto;html=1;exitX=1;exitY=0.5;exitDx=0;exitDy=0;entryX=0;entryY=0.5;entryDx=0;entryDy=0;" parent="1" source="SuRgPydzzCLbiLzEMDbJ-14" target="SuRgPydzzCLbiLzEMDbJ-58" edge="1">
          <mxGeometry relative="1" as="geometry" />
        </mxCell>
        <mxCell id="SuRgPydzzCLbiLzEMDbJ-14" value="&lt;font style=&quot;font-size: 14px;&quot;&gt;Issue&lt;br&gt;queue&lt;/font&gt;" style="rounded=1;whiteSpace=wrap;html=1;fillColor=#b1ddf0;strokeColor=default;" parent="1" vertex="1">
          <mxGeometry x="320" y="150" width="60" height="40" as="geometry" />
        </mxCell>
        <mxCell id="SuRgPydzzCLbiLzEMDbJ-22" style="edgeStyle=orthogonalEdgeStyle;rounded=0;orthogonalLoop=1;jettySize=auto;html=1;exitX=1;exitY=0.5;exitDx=0;exitDy=0;entryX=0;entryY=0.5;entryDx=0;entryDy=0;" parent="1" source="SuRgPydzzCLbiLzEMDbJ-15" target="SuRgPydzzCLbiLzEMDbJ-18" edge="1">
          <mxGeometry relative="1" as="geometry" />
        </mxCell>
        <mxCell id="SuRgPydzzCLbiLzEMDbJ-15" value="&lt;font style=&quot;font-size: 14px;&quot;&gt;Issue&lt;br&gt;queue&lt;/font&gt;" style="rounded=1;whiteSpace=wrap;html=1;fillColor=#b1ddf0;strokeColor=default;" parent="1" vertex="1">
          <mxGeometry x="320" y="220" width="60" height="40" as="geometry" />
        </mxCell>
        <mxCell id="SuRgPydzzCLbiLzEMDbJ-21" style="edgeStyle=orthogonalEdgeStyle;rounded=0;orthogonalLoop=1;jettySize=auto;html=1;exitX=1;exitY=0.5;exitDx=0;exitDy=0;entryX=0;entryY=0.5;entryDx=0;entryDy=0;" parent="1" source="SuRgPydzzCLbiLzEMDbJ-18" target="SuRgPydzzCLbiLzEMDbJ-19" edge="1">
          <mxGeometry relative="1" as="geometry" />
        </mxCell>
        <mxCell id="SuRgPydzzCLbiLzEMDbJ-18" value="" style="rounded=0;whiteSpace=wrap;html=1;fillColor=#f5f5f5;fontColor=#333333;strokeColor=default;" parent="1" vertex="1">
          <mxGeometry x="396.5" y="215" width="10" height="50" as="geometry" />
        </mxCell>
        <mxCell id="SuRgPydzzCLbiLzEMDbJ-34" style="edgeStyle=orthogonalEdgeStyle;rounded=0;orthogonalLoop=1;jettySize=auto;html=1;exitX=1;exitY=0.5;exitDx=0;exitDy=0;entryX=0;entryY=0.5;entryDx=0;entryDy=0;" parent="1" source="SuRgPydzzCLbiLzEMDbJ-19" target="SuRgPydzzCLbiLzEMDbJ-20" edge="1">
          <mxGeometry relative="1" as="geometry" />
        </mxCell>
        <mxCell id="SuRgPydzzCLbiLzEMDbJ-19" value="X0" style="whiteSpace=wrap;html=1;aspect=fixed;rounded=1;fillColor=#fad9d5;strokeColor=default;" parent="1" vertex="1">
          <mxGeometry x="426.5" y="223.75" width="32.5" height="32.5" as="geometry" />
        </mxCell>
        <mxCell id="SuRgPydzzCLbiLzEMDbJ-48" style="edgeStyle=orthogonalEdgeStyle;rounded=0;orthogonalLoop=1;jettySize=auto;html=1;exitX=1;exitY=0.5;exitDx=0;exitDy=0;entryX=0;entryY=0.5;entryDx=0;entryDy=0;" parent="1" source="SuRgPydzzCLbiLzEMDbJ-20" target="SuRgPydzzCLbiLzEMDbJ-36" edge="1">
          <mxGeometry relative="1" as="geometry" />
        </mxCell>
        <mxCell id="SuRgPydzzCLbiLzEMDbJ-20" value="" style="rounded=0;whiteSpace=wrap;html=1;fillColor=#f5f5f5;fontColor=#333333;strokeColor=default;" parent="1" vertex="1">
          <mxGeometry x="476.5" y="215" width="10" height="50" as="geometry" />
        </mxCell>
        <mxCell id="SuRgPydzzCLbiLzEMDbJ-35" style="edgeStyle=orthogonalEdgeStyle;rounded=0;orthogonalLoop=1;jettySize=auto;html=1;exitX=1;exitY=0.5;exitDx=0;exitDy=0;entryX=0;entryY=0.5;entryDx=0;entryDy=0;" parent="1" source="SuRgPydzzCLbiLzEMDbJ-36" target="SuRgPydzzCLbiLzEMDbJ-37" edge="1">
          <mxGeometry relative="1" as="geometry" />
        </mxCell>
        <mxCell id="SuRgPydzzCLbiLzEMDbJ-36" value="X1" style="whiteSpace=wrap;html=1;aspect=fixed;rounded=1;fillColor=#fad9d5;strokeColor=default;" parent="1" vertex="1">
          <mxGeometry x="510" y="223.75" width="32.5" height="32.5" as="geometry" />
        </mxCell>
        <mxCell id="SuRgPydzzCLbiLzEMDbJ-49" style="edgeStyle=orthogonalEdgeStyle;rounded=0;orthogonalLoop=1;jettySize=auto;html=1;exitX=1;exitY=0.5;exitDx=0;exitDy=0;entryX=0;entryY=0.5;entryDx=0;entryDy=0;" parent="1" source="SuRgPydzzCLbiLzEMDbJ-37" target="SuRgPydzzCLbiLzEMDbJ-39" edge="1">
          <mxGeometry relative="1" as="geometry" />
        </mxCell>
        <mxCell id="SuRgPydzzCLbiLzEMDbJ-37" value="" style="rounded=0;whiteSpace=wrap;html=1;fillColor=#f5f5f5;fontColor=#333333;strokeColor=default;" parent="1" vertex="1">
          <mxGeometry x="560" y="215" width="10" height="50" as="geometry" />
        </mxCell>
        <mxCell id="SuRgPydzzCLbiLzEMDbJ-38" style="edgeStyle=orthogonalEdgeStyle;rounded=0;orthogonalLoop=1;jettySize=auto;html=1;exitX=1;exitY=0.5;exitDx=0;exitDy=0;entryX=0;entryY=0.5;entryDx=0;entryDy=0;" parent="1" source="SuRgPydzzCLbiLzEMDbJ-39" target="SuRgPydzzCLbiLzEMDbJ-40" edge="1">
          <mxGeometry relative="1" as="geometry" />
        </mxCell>
        <mxCell id="SuRgPydzzCLbiLzEMDbJ-39" value="X2" style="whiteSpace=wrap;html=1;aspect=fixed;rounded=1;fillColor=#fad9d5;strokeColor=default;" parent="1" vertex="1">
          <mxGeometry x="590" y="223.75" width="32.5" height="32.5" as="geometry" />
        </mxCell>
        <mxCell id="SuRgPydzzCLbiLzEMDbJ-50" style="rounded=0;orthogonalLoop=1;jettySize=auto;html=1;exitX=1;exitY=0.5;exitDx=0;exitDy=0;entryX=0;entryY=0.75;entryDx=0;entryDy=0;" parent="1" source="SuRgPydzzCLbiLzEMDbJ-40" target="SuRgPydzzCLbiLzEMDbJ-44" edge="1">
          <mxGeometry relative="1" as="geometry" />
        </mxCell>
        <mxCell id="SuRgPydzzCLbiLzEMDbJ-40" value="" style="rounded=0;whiteSpace=wrap;html=1;fillColor=#f5f5f5;fontColor=#333333;strokeColor=default;" parent="1" vertex="1">
          <mxGeometry x="640" y="215" width="10" height="50" as="geometry" />
        </mxCell>
        <mxCell id="SuRgPydzzCLbiLzEMDbJ-44" value="" style="rounded=0;whiteSpace=wrap;html=1;fillColor=#f5f5f5;fontColor=#333333;strokeColor=default;" parent="1" vertex="1">
          <mxGeometry x="686.5" y="145" width="10" height="50" as="geometry" />
        </mxCell>
        <mxCell id="SuRgPydzzCLbiLzEMDbJ-45" value="&lt;font style=&quot;font-size: 14px;&quot;&gt;ROB&lt;/font&gt;" style="rounded=0;whiteSpace=wrap;html=1;fillColor=#ffe6cc;strokeColor=default;" parent="1" vertex="1">
          <mxGeometry x="716.5" y="145" width="43" height="20" as="geometry" />
        </mxCell>
        <mxCell id="SuRgPydzzCLbiLzEMDbJ-46" value="&lt;font style=&quot;font-size: 14px;&quot;&gt;SB&lt;/font&gt;" style="rounded=0;whiteSpace=wrap;html=1;fillColor=#fff2cc;strokeColor=default;" parent="1" vertex="1">
          <mxGeometry x="716.5" y="175" width="43" height="20" as="geometry" />
        </mxCell>
        <mxCell id="SuRgPydzzCLbiLzEMDbJ-47" value="" style="rounded=0;whiteSpace=wrap;html=1;fillColor=#f5f5f5;fontColor=#333333;strokeColor=default;" parent="1" vertex="1">
          <mxGeometry x="776.5" y="145" width="10" height="50" as="geometry" />
        </mxCell>
        <mxCell id="SuRgPydzzCLbiLzEMDbJ-54" style="edgeStyle=orthogonalEdgeStyle;rounded=0;orthogonalLoop=1;jettySize=auto;html=1;exitX=0;exitY=0.5;exitDx=0;exitDy=0;entryX=-0.013;entryY=0.886;entryDx=0;entryDy=0;entryPerimeter=0;endArrow=none;startFill=0;" parent="1" source="SuRgPydzzCLbiLzEMDbJ-13" target="SuRgPydzzCLbiLzEMDbJ-6" edge="1">
          <mxGeometry relative="1" as="geometry" />
        </mxCell>
        <mxCell id="SuRgPydzzCLbiLzEMDbJ-55" style="edgeStyle=orthogonalEdgeStyle;rounded=0;orthogonalLoop=1;jettySize=auto;html=1;exitX=0;exitY=0.5;exitDx=0;exitDy=0;entryX=-0.04;entryY=0.526;entryDx=0;entryDy=0;entryPerimeter=0;endArrow=none;startFill=0;" parent="1" source="SuRgPydzzCLbiLzEMDbJ-14" target="SuRgPydzzCLbiLzEMDbJ-6" edge="1">
          <mxGeometry relative="1" as="geometry" />
        </mxCell>
        <mxCell id="SuRgPydzzCLbiLzEMDbJ-56" style="edgeStyle=orthogonalEdgeStyle;rounded=0;orthogonalLoop=1;jettySize=auto;html=1;exitX=0;exitY=0.5;exitDx=0;exitDy=0;entryX=0.013;entryY=0.143;entryDx=0;entryDy=0;entryPerimeter=0;endArrow=none;startFill=0;" parent="1" source="SuRgPydzzCLbiLzEMDbJ-15" target="SuRgPydzzCLbiLzEMDbJ-6" edge="1">
          <mxGeometry relative="1" as="geometry" />
        </mxCell>
        <mxCell id="SuRgPydzzCLbiLzEMDbJ-57" style="edgeStyle=orthogonalEdgeStyle;rounded=0;orthogonalLoop=1;jettySize=auto;html=1;exitX=1;exitY=0.5;exitDx=0;exitDy=0;entryX=0;entryY=0.5;entryDx=0;entryDy=0;" parent="1" source="SuRgPydzzCLbiLzEMDbJ-58" target="SuRgPydzzCLbiLzEMDbJ-60" edge="1">
          <mxGeometry relative="1" as="geometry" />
        </mxCell>
        <mxCell id="SuRgPydzzCLbiLzEMDbJ-58" value="" style="rounded=0;whiteSpace=wrap;html=1;fillColor=#f5f5f5;fontColor=#333333;strokeColor=default;" parent="1" vertex="1">
          <mxGeometry x="396.5" y="145" width="10" height="50" as="geometry" />
        </mxCell>
        <mxCell id="SuRgPydzzCLbiLzEMDbJ-59" style="edgeStyle=orthogonalEdgeStyle;rounded=0;orthogonalLoop=1;jettySize=auto;html=1;exitX=1;exitY=0.5;exitDx=0;exitDy=0;entryX=0;entryY=0.5;entryDx=0;entryDy=0;" parent="1" source="SuRgPydzzCLbiLzEMDbJ-60" target="SuRgPydzzCLbiLzEMDbJ-62" edge="1">
          <mxGeometry relative="1" as="geometry" />
        </mxCell>
        <mxCell id="SuRgPydzzCLbiLzEMDbJ-60" value="M0" style="whiteSpace=wrap;html=1;aspect=fixed;rounded=1;fillColor=#bac8d3;strokeColor=default;" parent="1" vertex="1">
          <mxGeometry x="426.5" y="153.75" width="32.5" height="32.5" as="geometry" />
        </mxCell>
        <mxCell id="SuRgPydzzCLbiLzEMDbJ-61" style="edgeStyle=orthogonalEdgeStyle;rounded=0;orthogonalLoop=1;jettySize=auto;html=1;exitX=1;exitY=0.5;exitDx=0;exitDy=0;entryX=0;entryY=0.5;entryDx=0;entryDy=0;" parent="1" source="SuRgPydzzCLbiLzEMDbJ-62" target="SuRgPydzzCLbiLzEMDbJ-64" edge="1">
          <mxGeometry relative="1" as="geometry" />
        </mxCell>
        <mxCell id="SuRgPydzzCLbiLzEMDbJ-62" value="" style="rounded=0;whiteSpace=wrap;html=1;fillColor=#f5f5f5;fontColor=#333333;strokeColor=default;" parent="1" vertex="1">
          <mxGeometry x="476.5" y="145" width="10" height="50" as="geometry" />
        </mxCell>
        <mxCell id="SuRgPydzzCLbiLzEMDbJ-63" style="edgeStyle=orthogonalEdgeStyle;rounded=0;orthogonalLoop=1;jettySize=auto;html=1;exitX=1;exitY=0.5;exitDx=0;exitDy=0;entryX=0;entryY=0.5;entryDx=0;entryDy=0;" parent="1" source="SuRgPydzzCLbiLzEMDbJ-64" target="SuRgPydzzCLbiLzEMDbJ-66" edge="1">
          <mxGeometry relative="1" as="geometry" />
        </mxCell>
        <mxCell id="SuRgPydzzCLbiLzEMDbJ-64" value="M1" style="whiteSpace=wrap;html=1;aspect=fixed;rounded=1;fillColor=#bac8d3;strokeColor=default;" parent="1" vertex="1">
          <mxGeometry x="510" y="153.75" width="32.5" height="32.5" as="geometry" />
        </mxCell>
        <mxCell id="SuRgPydzzCLbiLzEMDbJ-70" style="edgeStyle=orthogonalEdgeStyle;rounded=0;orthogonalLoop=1;jettySize=auto;html=1;exitX=1;exitY=0.5;exitDx=0;exitDy=0;entryX=0;entryY=0.5;entryDx=0;entryDy=0;" parent="1" source="SuRgPydzzCLbiLzEMDbJ-66" target="SuRgPydzzCLbiLzEMDbJ-44" edge="1">
          <mxGeometry relative="1" as="geometry" />
        </mxCell>
        <mxCell id="SuRgPydzzCLbiLzEMDbJ-66" value="" style="rounded=0;whiteSpace=wrap;html=1;fillColor=#f5f5f5;fontColor=#333333;strokeColor=default;" parent="1" vertex="1">
          <mxGeometry x="560" y="145" width="10" height="50" as="geometry" />
        </mxCell>
        <mxCell id="SuRgPydzzCLbiLzEMDbJ-72" style="edgeStyle=orthogonalEdgeStyle;rounded=0;orthogonalLoop=1;jettySize=auto;html=1;exitX=1;exitY=0.5;exitDx=0;exitDy=0;entryX=0;entryY=0.5;entryDx=0;entryDy=0;" parent="1" source="SuRgPydzzCLbiLzEMDbJ-73" target="SuRgPydzzCLbiLzEMDbJ-75" edge="1">
          <mxGeometry relative="1" as="geometry" />
        </mxCell>
        <mxCell id="SuRgPydzzCLbiLzEMDbJ-73" value="" style="rounded=0;whiteSpace=wrap;html=1;fillColor=#f5f5f5;fontColor=#333333;strokeColor=default;" parent="1" vertex="1">
          <mxGeometry x="396.5" y="80" width="10" height="50" as="geometry" />
        </mxCell>
        <mxCell id="SuRgPydzzCLbiLzEMDbJ-74" style="edgeStyle=orthogonalEdgeStyle;rounded=0;orthogonalLoop=1;jettySize=auto;html=1;exitX=1;exitY=0.5;exitDx=0;exitDy=0;entryX=0;entryY=0.5;entryDx=0;entryDy=0;" parent="1" source="SuRgPydzzCLbiLzEMDbJ-75" target="SuRgPydzzCLbiLzEMDbJ-76" edge="1">
          <mxGeometry relative="1" as="geometry" />
        </mxCell>
        <mxCell id="SuRgPydzzCLbiLzEMDbJ-75" value="A0" style="whiteSpace=wrap;html=1;aspect=fixed;rounded=1;fillColor=#d0cee2;strokeColor=default;" parent="1" vertex="1">
          <mxGeometry x="426.5" y="88.75" width="32.5" height="32.5" as="geometry" />
        </mxCell>
        <mxCell id="SuRgPydzzCLbiLzEMDbJ-78" style="rounded=0;orthogonalLoop=1;jettySize=auto;html=1;exitX=1;exitY=0.5;exitDx=0;exitDy=0;entryX=0;entryY=0.25;entryDx=0;entryDy=0;" parent="1" source="SuRgPydzzCLbiLzEMDbJ-76" target="SuRgPydzzCLbiLzEMDbJ-44" edge="1">
          <mxGeometry relative="1" as="geometry" />
        </mxCell>
        <mxCell id="SuRgPydzzCLbiLzEMDbJ-76" value="" style="rounded=0;whiteSpace=wrap;html=1;fillColor=#f5f5f5;fontColor=#333333;strokeColor=default;" parent="1" vertex="1">
          <mxGeometry x="476.5" y="80" width="10" height="50" as="geometry" />
        </mxCell>
        <mxCell id="SuRgPydzzCLbiLzEMDbJ-79" style="edgeStyle=orthogonalEdgeStyle;rounded=0;orthogonalLoop=1;jettySize=auto;html=1;exitX=0;exitY=0.5;exitDx=0;exitDy=0;entryX=1;entryY=0.2;entryDx=0;entryDy=0;entryPerimeter=0;startArrow=block;startFill=1;endArrow=none;" parent="1" source="SuRgPydzzCLbiLzEMDbJ-45" target="SuRgPydzzCLbiLzEMDbJ-44" edge="1">
          <mxGeometry relative="1" as="geometry" />
        </mxCell>
        <mxCell id="SuRgPydzzCLbiLzEMDbJ-81" style="edgeStyle=orthogonalEdgeStyle;rounded=0;orthogonalLoop=1;jettySize=auto;html=1;entryX=1;entryY=0.817;entryDx=0;entryDy=0;entryPerimeter=0;endArrow=none;startFill=1;startArrow=block;" parent="1" source="SuRgPydzzCLbiLzEMDbJ-46" target="SuRgPydzzCLbiLzEMDbJ-44" edge="1">
          <mxGeometry relative="1" as="geometry" />
        </mxCell>
        <mxCell id="SuRgPydzzCLbiLzEMDbJ-82" style="edgeStyle=orthogonalEdgeStyle;rounded=0;orthogonalLoop=1;jettySize=auto;html=1;exitX=1;exitY=0.5;exitDx=0;exitDy=0;entryX=-0.056;entryY=0.2;entryDx=0;entryDy=0;entryPerimeter=0;" parent="1" source="SuRgPydzzCLbiLzEMDbJ-45" target="SuRgPydzzCLbiLzEMDbJ-47" edge="1">
          <mxGeometry relative="1" as="geometry" />
        </mxCell>
        <mxCell id="SuRgPydzzCLbiLzEMDbJ-83" style="edgeStyle=orthogonalEdgeStyle;rounded=0;orthogonalLoop=1;jettySize=auto;html=1;exitX=1;exitY=0.5;exitDx=0;exitDy=0;entryX=-0.056;entryY=0.8;entryDx=0;entryDy=0;entryPerimeter=0;" parent="1" source="SuRgPydzzCLbiLzEMDbJ-46" target="SuRgPydzzCLbiLzEMDbJ-47" edge="1">
          <mxGeometry relative="1" as="geometry" />
        </mxCell>
        <mxCell id="SuRgPydzzCLbiLzEMDbJ-84" value="Scoreboard" style="rounded=0;whiteSpace=wrap;html=1;fillColor=#dae8fc;strokeColor=default;" parent="1" vertex="1">
          <mxGeometry x="297" y="30" width="83" height="40" as="geometry" />
        </mxCell>
        <mxCell id="SuRgPydzzCLbiLzEMDbJ-85" value="PRF" style="rounded=0;whiteSpace=wrap;html=1;fillColor=#d5e8d4;strokeColor=default;" parent="1" vertex="1">
          <mxGeometry x="676.5" y="56.25" width="40" height="28.75" as="geometry" />
        </mxCell>
        <mxCell id="SuRgPydzzCLbiLzEMDbJ-86" value="ARF" style="rounded=0;whiteSpace=wrap;html=1;fillColor=#f8cecc;strokeColor=default;" parent="1" vertex="1">
          <mxGeometry x="767" y="56.25" width="40" height="28.75" as="geometry" />
        </mxCell>
        <mxCell id="SuRgPydzzCLbiLzEMDbJ-87" value="&lt;font style=&quot;font-size: 14px;&quot;&gt;register&lt;br&gt;renameing&lt;/font&gt;" style="rounded=1;whiteSpace=wrap;html=1;fillColor=#ffff88;strokeColor=default;" parent="1" vertex="1">
          <mxGeometry x="160" y="215" width="80" height="35" as="geometry" />
        </mxCell>
        <mxCell id="SuRgPydzzCLbiLzEMDbJ-88" value="" style="endArrow=none;dashed=1;html=1;rounded=0;dashPattern=8 8;" parent="1" edge="1">
          <mxGeometry width="50" height="50" relative="1" as="geometry">
            <mxPoint x="40" y="296.25" as="sourcePoint" />
            <mxPoint x="40" y="56.25" as="targetPoint" />
          </mxGeometry>
        </mxCell>
        <mxCell id="SuRgPydzzCLbiLzEMDbJ-89" value="" style="endArrow=none;dashed=1;html=1;rounded=0;dashPattern=8 8;" parent="1" edge="1">
          <mxGeometry width="50" height="50" relative="1" as="geometry">
            <mxPoint x="150" y="296.25" as="sourcePoint" />
            <mxPoint x="150" y="56.25" as="targetPoint" />
          </mxGeometry>
        </mxCell>
        <mxCell id="SuRgPydzzCLbiLzEMDbJ-90" value="" style="endArrow=none;dashed=1;html=1;rounded=0;dashPattern=8 8;" parent="1" edge="1">
          <mxGeometry width="50" height="50" relative="1" as="geometry">
            <mxPoint x="260" y="296.25" as="sourcePoint" />
            <mxPoint x="260" y="56.25" as="targetPoint" />
          </mxGeometry>
        </mxCell>
        <mxCell id="SuRgPydzzCLbiLzEMDbJ-91" value="" style="endArrow=none;dashed=1;html=1;rounded=0;dashPattern=8 8;" parent="1" edge="1">
          <mxGeometry width="50" height="50" relative="1" as="geometry">
            <mxPoint x="406.5" y="296.25" as="sourcePoint" />
            <mxPoint x="406.5" y="56.25" as="targetPoint" />
          </mxGeometry>
        </mxCell>
        <mxCell id="SuRgPydzzCLbiLzEMDbJ-92" value="" style="endArrow=none;dashed=1;html=1;rounded=0;dashPattern=8 8;" parent="1" edge="1">
          <mxGeometry width="50" height="50" relative="1" as="geometry">
            <mxPoint x="487" y="280" as="sourcePoint" />
            <mxPoint x="486.5" y="56.25" as="targetPoint" />
          </mxGeometry>
        </mxCell>
        <mxCell id="SuRgPydzzCLbiLzEMDbJ-93" value="" style="endArrow=none;dashed=1;html=1;rounded=0;dashPattern=8 8;" parent="1" edge="1">
          <mxGeometry width="50" height="50" relative="1" as="geometry">
            <mxPoint x="570" y="280" as="sourcePoint" />
            <mxPoint x="570" y="56.25" as="targetPoint" />
          </mxGeometry>
        </mxCell>
        <mxCell id="SuRgPydzzCLbiLzEMDbJ-94" value="" style="endArrow=none;dashed=1;html=1;rounded=0;dashPattern=8 8;" parent="1" edge="1">
          <mxGeometry width="50" height="50" relative="1" as="geometry">
            <mxPoint x="650" y="296.25" as="sourcePoint" />
            <mxPoint x="650" y="56.25" as="targetPoint" />
          </mxGeometry>
        </mxCell>
        <mxCell id="SuRgPydzzCLbiLzEMDbJ-95" value="" style="endArrow=none;dashed=1;html=1;rounded=0;dashPattern=8 8;entryX=0.5;entryY=1;entryDx=0;entryDy=0;" parent="1" target="SuRgPydzzCLbiLzEMDbJ-85" edge="1">
          <mxGeometry width="50" height="50" relative="1" as="geometry">
            <mxPoint x="696.5" y="295" as="sourcePoint" />
            <mxPoint x="697" y="90" as="targetPoint" />
          </mxGeometry>
        </mxCell>
        <mxCell id="SuRgPydzzCLbiLzEMDbJ-96" value="" style="endArrow=none;dashed=1;html=1;rounded=0;dashPattern=8 8;entryX=0.5;entryY=1;entryDx=0;entryDy=0;" parent="1" edge="1">
          <mxGeometry width="50" height="50" relative="1" as="geometry">
            <mxPoint x="786.5" y="295" as="sourcePoint" />
            <mxPoint x="787" y="85" as="targetPoint" />
          </mxGeometry>
        </mxCell>
        <mxCell id="SuRgPydzzCLbiLzEMDbJ-97" value="&lt;b&gt;&lt;font style=&quot;font-size: 14px;&quot;&gt;Fetch&lt;/font&gt;&lt;/b&gt;" style="text;html=1;align=center;verticalAlign=middle;resizable=0;points=[];autosize=1;strokeColor=none;fillColor=none;" parent="1" vertex="1">
          <mxGeometry x="60" y="280" width="60" height="30" as="geometry" />
        </mxCell>
        <mxCell id="SuRgPydzzCLbiLzEMDbJ-99" value="&lt;b&gt;&lt;font style=&quot;font-size: 14px;&quot;&gt;Decode&lt;/font&gt;&lt;/b&gt;" style="text;html=1;align=center;verticalAlign=middle;resizable=0;points=[];autosize=1;strokeColor=none;fillColor=none;" parent="1" vertex="1">
          <mxGeometry x="165" y="280" width="70" height="30" as="geometry" />
        </mxCell>
        <mxCell id="SuRgPydzzCLbiLzEMDbJ-100" value="&lt;b&gt;&lt;font style=&quot;font-size: 14px;&quot;&gt;Issue&lt;/font&gt;&lt;/b&gt;" style="text;html=1;align=center;verticalAlign=middle;resizable=0;points=[];autosize=1;strokeColor=none;fillColor=none;" parent="1" vertex="1">
          <mxGeometry x="302" y="280" width="60" height="30" as="geometry" />
        </mxCell>
        <mxCell id="SuRgPydzzCLbiLzEMDbJ-101" value="&lt;b&gt;&lt;font style=&quot;font-size: 14px;&quot;&gt;Excute / Memory&lt;/font&gt;&lt;/b&gt;" style="text;html=1;align=center;verticalAlign=middle;resizable=0;points=[];autosize=1;strokeColor=none;fillColor=none;" parent="1" vertex="1">
          <mxGeometry x="461.25" y="280" width="130" height="30" as="geometry" />
        </mxCell>
        <mxCell id="SuRgPydzzCLbiLzEMDbJ-102" value="&lt;b&gt;&lt;font style=&quot;font-size: 14px;&quot;&gt;Write&lt;br&gt;Back&lt;/font&gt;&lt;/b&gt;" style="text;html=1;align=center;verticalAlign=middle;resizable=0;points=[];autosize=1;strokeColor=none;fillColor=none;" parent="1" vertex="1">
          <mxGeometry x="644" y="270" width="60" height="50" as="geometry" />
        </mxCell>
        <mxCell id="SuRgPydzzCLbiLzEMDbJ-103" value="&lt;span style=&quot;font-size: 14px;&quot;&gt;&lt;b&gt;Commit&lt;br&gt;/ Retire&lt;/b&gt;&lt;/span&gt;" style="text;html=1;align=center;verticalAlign=middle;resizable=0;points=[];autosize=1;strokeColor=none;fillColor=none;" parent="1" vertex="1">
          <mxGeometry x="698" y="270" width="80" height="50" as="geometry" />
        </mxCell>
        <mxCell id="SuRgPydzzCLbiLzEMDbJ-104" value="&lt;span&gt;&lt;font face=&quot;Verdana&quot;&gt;程序顺序&lt;/font&gt;&lt;/span&gt;&lt;div&gt;&lt;span&gt;&lt;font face=&quot;Helvetica&quot;&gt;(&lt;font style=&quot;font-size: 12px;&quot;&gt;R15 = R16&lt;/font&gt;)&lt;/font&gt;&lt;/span&gt;&lt;/div&gt;" style="text;html=1;align=center;verticalAlign=middle;resizable=0;points=[];autosize=1;strokeColor=none;fillColor=none;fontSize=16;fontStyle=1" parent="1" vertex="1">
          <mxGeometry x="187" y="449" width="90" height="50" as="geometry" />
        </mxCell>
        <mxCell id="SuRgPydzzCLbiLzEMDbJ-105" value="" style="endArrow=none;html=1;rounded=0;strokeWidth=2;fontStyle=1" parent="1" edge="1">
          <mxGeometry width="50" height="50" relative="1" as="geometry">
            <mxPoint x="137" y="507" as="sourcePoint" />
            <mxPoint x="327" y="507" as="targetPoint" />
          </mxGeometry>
        </mxCell>
        <mxCell id="SuRgPydzzCLbiLzEMDbJ-106" value="&lt;font face=&quot;Helvetica&quot; style=&quot;font-size: 15px;&quot;&gt;&lt;span&gt;Store R3, R15, 0&lt;/span&gt;&lt;/font&gt;" style="text;html=1;align=center;verticalAlign=middle;resizable=0;points=[];autosize=1;strokeColor=none;fillColor=none;fontFamily=Verdana;fontStyle=1" parent="1" vertex="1">
          <mxGeometry x="162" y="517" width="140" height="30" as="geometry" />
        </mxCell>
        <mxCell id="SuRgPydzzCLbiLzEMDbJ-107" value="&lt;font face=&quot;Helvetica&quot; style=&quot;font-size: 15px;&quot;&gt;&lt;span&gt;Load&amp;nbsp; R1, R16, 0&lt;/span&gt;&lt;/font&gt;" style="text;html=1;align=center;verticalAlign=middle;resizable=0;points=[];autosize=1;strokeColor=none;fillColor=none;fontFamily=Verdana;fontStyle=1" parent="1" vertex="1">
          <mxGeometry x="162" y="553.5" width="140" height="30" as="geometry" />
        </mxCell>
        <mxCell id="SuRgPydzzCLbiLzEMDbJ-109" value="&lt;font face=&quot;Helvetica&quot; style=&quot;font-size: 15px;&quot;&gt;&lt;span&gt;ADD&amp;nbsp; R4, R1, R2&lt;/span&gt;&lt;/font&gt;" style="text;html=1;align=center;verticalAlign=middle;resizable=0;points=[];autosize=1;strokeColor=none;fillColor=none;fontFamily=Verdana;fontStyle=1" parent="1" vertex="1">
          <mxGeometry x="162" y="589" width="140" height="30" as="geometry" />
        </mxCell>
        <mxCell id="SuRgPydzzCLbiLzEMDbJ-110" value="&lt;font face=&quot;Helvetica&quot; style=&quot;font-size: 15px;&quot;&gt;&lt;span&gt;Mul&amp;nbsp; &amp;nbsp;R5, R4, R4&lt;/span&gt;&lt;/font&gt;" style="text;html=1;align=center;verticalAlign=middle;resizable=0;points=[];autosize=1;strokeColor=none;fillColor=none;fontFamily=Verdana;fontStyle=1" parent="1" vertex="1">
          <mxGeometry x="167" y="629" width="130" height="30" as="geometry" />
        </mxCell>
        <mxCell id="SuRgPydzzCLbiLzEMDbJ-111" value="&lt;font style=&quot;font-size: 20px;&quot;&gt;&lt;span style=&quot;&quot;&gt;...&lt;/span&gt;&lt;/font&gt;" style="text;html=1;align=center;verticalAlign=middle;resizable=0;points=[];autosize=1;strokeColor=none;fillColor=none;fontStyle=1" parent="1" vertex="1">
          <mxGeometry x="207" y="659" width="40" height="40" as="geometry" />
        </mxCell>
        <mxCell id="SuRgPydzzCLbiLzEMDbJ-112" value="&lt;span&gt;&lt;font face=&quot;Helvetica&quot;&gt;执行顺序&lt;/font&gt;&lt;/span&gt;" style="text;html=1;align=center;verticalAlign=middle;resizable=0;points=[];autosize=1;strokeColor=none;fillColor=none;fontSize=16;fontStyle=1" parent="1" vertex="1">
          <mxGeometry x="506" y="459" width="90" height="30" as="geometry" />
        </mxCell>
        <mxCell id="SuRgPydzzCLbiLzEMDbJ-113" value="" style="endArrow=none;html=1;rounded=0;strokeWidth=2;fontStyle=1" parent="1" edge="1">
          <mxGeometry width="50" height="50" relative="1" as="geometry">
            <mxPoint x="456" y="507" as="sourcePoint" />
            <mxPoint x="646" y="507" as="targetPoint" />
          </mxGeometry>
        </mxCell>
        <mxCell id="SuRgPydzzCLbiLzEMDbJ-114" value="&lt;font style=&quot;font-size: 15px;&quot;&gt;&lt;span&gt;Store R3, R15, 0&lt;/span&gt;&lt;/font&gt;" style="text;html=1;align=center;verticalAlign=middle;resizable=0;points=[];autosize=1;strokeColor=none;fillColor=none;fontFamily=Helvetica;fontStyle=1" parent="1" vertex="1">
          <mxGeometry x="480" y="629" width="140" height="30" as="geometry" />
        </mxCell>
        <mxCell id="SuRgPydzzCLbiLzEMDbJ-115" value="&lt;font style=&quot;font-size: 15px;&quot;&gt;&lt;span&gt;Load&amp;nbsp; R1, R16, 0&lt;/span&gt;&lt;/font&gt;" style="text;html=1;align=center;verticalAlign=middle;resizable=0;points=[];autosize=1;strokeColor=none;fillColor=none;fontFamily=Helvetica;fontStyle=1" parent="1" vertex="1">
          <mxGeometry x="481" y="517" width="140" height="30" as="geometry" />
        </mxCell>
        <mxCell id="SuRgPydzzCLbiLzEMDbJ-116" value="&lt;font style=&quot;font-size: 15px;&quot;&gt;&lt;span&gt;ADD&amp;nbsp; R4, R1, R2&lt;/span&gt;&lt;/font&gt;" style="text;html=1;align=center;verticalAlign=middle;resizable=0;points=[];autosize=1;strokeColor=none;fillColor=none;fontFamily=Helvetica;fontStyle=1" parent="1" vertex="1">
          <mxGeometry x="480" y="554" width="140" height="30" as="geometry" />
        </mxCell>
        <mxCell id="SuRgPydzzCLbiLzEMDbJ-117" value="&lt;font style=&quot;font-size: 15px;&quot;&gt;&lt;span&gt;Mul&amp;nbsp; &amp;nbsp;R5, R4, R4&lt;/span&gt;&lt;/font&gt;" style="text;html=1;align=center;verticalAlign=middle;resizable=0;points=[];autosize=1;strokeColor=none;fillColor=none;fontFamily=Helvetica;fontStyle=1" parent="1" vertex="1">
          <mxGeometry x="485" y="594" width="130" height="30" as="geometry" />
        </mxCell>
        <mxCell id="SuRgPydzzCLbiLzEMDbJ-118" value="&lt;font style=&quot;font-size: 20px;&quot;&gt;&lt;span style=&quot;&quot;&gt;...&lt;/span&gt;&lt;/font&gt;" style="text;html=1;align=center;verticalAlign=middle;resizable=0;points=[];autosize=1;strokeColor=none;fillColor=none;fontStyle=1" parent="1" vertex="1">
          <mxGeometry x="530" y="659" width="40" height="40" as="geometry" />
        </mxCell>
        <mxCell id="SuRgPydzzCLbiLzEMDbJ-119" value="" style="endArrow=classic;html=1;rounded=0;" parent="1" edge="1">
          <mxGeometry width="50" height="50" relative="1" as="geometry">
            <mxPoint x="689.5" y="531.5" as="sourcePoint" />
            <mxPoint x="659.5" y="531.5" as="targetPoint" />
          </mxGeometry>
        </mxCell>
        <mxCell id="SuRgPydzzCLbiLzEMDbJ-120" value="&lt;font style=&quot;font-size: 14px;&quot;&gt;&lt;b&gt;提前读取了错误&lt;/b&gt;&lt;/font&gt;&lt;div&gt;&lt;font style=&quot;font-size: 14px;&quot;&gt;&lt;b&gt;的值到R1中&lt;/b&gt;&lt;/font&gt;&lt;/div&gt;" style="text;html=1;align=left;verticalAlign=middle;resizable=0;points=[];autosize=1;strokeColor=none;fillColor=none;" parent="1" vertex="1">
          <mxGeometry x="694.5" y="507" width="120" height="50" as="geometry" />
        </mxCell>
        <mxCell id="SuRgPydzzCLbiLzEMDbJ-122" value="" style="endArrow=classic;html=1;rounded=0;" parent="1" edge="1">
          <mxGeometry width="50" height="50" relative="1" as="geometry">
            <mxPoint x="691" y="588.5" as="sourcePoint" />
            <mxPoint x="661" y="588.5" as="targetPoint" />
          </mxGeometry>
        </mxCell>
        <mxCell id="SuRgPydzzCLbiLzEMDbJ-123" value="&lt;span style=&quot;font-size: 14px;&quot;&gt;&lt;b&gt;后续依赖R1的值&lt;br&gt;的指令也全部需&lt;/b&gt;&lt;/span&gt;&lt;div&gt;&lt;span style=&quot;font-size: 14px;&quot;&gt;&lt;b&gt;要回滚&lt;/b&gt;&lt;/span&gt;&lt;/div&gt;" style="text;html=1;align=left;verticalAlign=middle;resizable=0;points=[];autosize=1;strokeColor=none;fillColor=none;" parent="1" vertex="1">
          <mxGeometry x="696" y="564" width="130" height="60" as="geometry" />
        </mxCell>
        <mxCell id="SuRgPydzzCLbiLzEMDbJ-126" value="" style="endArrow=none;html=1;rounded=0;strokeWidth=2;fontStyle=1" parent="1" edge="1">
          <mxGeometry width="50" height="50" relative="1" as="geometry">
            <mxPoint x="137" y="449" as="sourcePoint" />
            <mxPoint x="327" y="449" as="targetPoint" />
          </mxGeometry>
        </mxCell>
        <mxCell id="SuRgPydzzCLbiLzEMDbJ-127" value="" style="endArrow=none;html=1;rounded=0;strokeWidth=2;fontStyle=1" parent="1" edge="1">
          <mxGeometry width="50" height="50" relative="1" as="geometry">
            <mxPoint x="137" y="719" as="sourcePoint" />
            <mxPoint x="327" y="719" as="targetPoint" />
          </mxGeometry>
        </mxCell>
        <mxCell id="SuRgPydzzCLbiLzEMDbJ-128" value="" style="endArrow=none;html=1;rounded=0;strokeWidth=2;fontStyle=1" parent="1" edge="1">
          <mxGeometry width="50" height="50" relative="1" as="geometry">
            <mxPoint x="456.25" y="719" as="sourcePoint" />
            <mxPoint x="646.25" y="719" as="targetPoint" />
          </mxGeometry>
        </mxCell>
        <mxCell id="SuRgPydzzCLbiLzEMDbJ-129" value="" style="endArrow=none;html=1;rounded=0;strokeWidth=2;fontStyle=1" parent="1" edge="1">
          <mxGeometry width="50" height="50" relative="1" as="geometry">
            <mxPoint x="458" y="449" as="sourcePoint" />
            <mxPoint x="648" y="449" as="targetPoint" />
          </mxGeometry>
        </mxCell>
        <mxCell id="0YGuQnUB18e6LaQexr9Q-2" value="R0" style="whiteSpace=wrap;html=1;aspect=fixed;" parent="1" vertex="1">
          <mxGeometry x="120" y="890" width="40" height="40" as="geometry" />
        </mxCell>
        <mxCell id="0YGuQnUB18e6LaQexr9Q-8" style="rounded=0;orthogonalLoop=1;jettySize=auto;html=1;exitX=0;exitY=1;exitDx=0;exitDy=0;entryX=0.75;entryY=0;entryDx=0;entryDy=0;" parent="1" source="0YGuQnUB18e6LaQexr9Q-3" target="0YGuQnUB18e6LaQexr9Q-4" edge="1">
          <mxGeometry relative="1" as="geometry" />
        </mxCell>
        <mxCell id="0YGuQnUB18e6LaQexr9Q-3" value="R1" style="whiteSpace=wrap;html=1;aspect=fixed;" parent="1" vertex="1">
          <mxGeometry x="275" y="890" width="40" height="40" as="geometry" />
        </mxCell>
        <mxCell id="0YGuQnUB18e6LaQexr9Q-9" style="edgeStyle=orthogonalEdgeStyle;rounded=0;orthogonalLoop=1;jettySize=auto;html=1;exitX=0.5;exitY=1;exitDx=0;exitDy=0;entryX=0.5;entryY=0;entryDx=0;entryDy=0;" parent="1" source="0YGuQnUB18e6LaQexr9Q-4" target="0YGuQnUB18e6LaQexr9Q-5" edge="1">
          <mxGeometry relative="1" as="geometry" />
        </mxCell>
        <mxCell id="0YGuQnUB18e6LaQexr9Q-4" value="&lt;font style=&quot;font-size: 16px;&quot;&gt;&lt;b&gt;ALU&lt;/b&gt;&lt;/font&gt;" style="rounded=0;whiteSpace=wrap;html=1;" parent="1" vertex="1">
          <mxGeometry x="175" y="960" width="85" height="50" as="geometry" />
        </mxCell>
        <mxCell id="0YGuQnUB18e6LaQexr9Q-5" value="R3" style="whiteSpace=wrap;html=1;aspect=fixed;" parent="1" vertex="1">
          <mxGeometry x="197.5" y="1050" width="40" height="40" as="geometry" />
        </mxCell>
        <mxCell id="0YGuQnUB18e6LaQexr9Q-6" value="" style="endArrow=classic;html=1;rounded=0;entryX=0.25;entryY=0;entryDx=0;entryDy=0;exitX=1;exitY=1;exitDx=0;exitDy=0;" parent="1" source="0YGuQnUB18e6LaQexr9Q-2" target="0YGuQnUB18e6LaQexr9Q-4" edge="1">
          <mxGeometry width="50" height="50" relative="1" as="geometry">
            <mxPoint x="170" y="940" as="sourcePoint" />
            <mxPoint x="140" y="990" as="targetPoint" />
          </mxGeometry>
        </mxCell>
        <mxCell id="J0ch18TBqbvuwSnCmzGs-5" style="edgeStyle=orthogonalEdgeStyle;rounded=0;orthogonalLoop=1;jettySize=auto;html=1;exitX=0.75;exitY=1;exitDx=0;exitDy=0;entryX=1;entryY=0.5;entryDx=0;entryDy=0;" parent="1" source="J0ch18TBqbvuwSnCmzGs-1" target="J0ch18TBqbvuwSnCmzGs-3" edge="1">
          <mxGeometry relative="1" as="geometry" />
        </mxCell>
        <mxCell id="J0ch18TBqbvuwSnCmzGs-1" value="&lt;font style=&quot;font-size: 16px;&quot;&gt;&lt;b&gt;Instruction pool&lt;/b&gt;&lt;/font&gt;" style="rounded=0;whiteSpace=wrap;html=1;fillColor=#d5e8d4;strokeColor=default;" parent="1" vertex="1">
          <mxGeometry x="143.25" y="1250" width="180" height="40" as="geometry" />
        </mxCell>
        <mxCell id="J0ch18TBqbvuwSnCmzGs-4" style="edgeStyle=orthogonalEdgeStyle;rounded=0;orthogonalLoop=1;jettySize=auto;html=1;exitX=1;exitY=0.5;exitDx=0;exitDy=0;entryX=0;entryY=0.5;entryDx=0;entryDy=0;" parent="1" source="J0ch18TBqbvuwSnCmzGs-2" target="J0ch18TBqbvuwSnCmzGs-3" edge="1">
          <mxGeometry relative="1" as="geometry" />
        </mxCell>
        <mxCell id="J0ch18TBqbvuwSnCmzGs-2" value="&lt;span style=&quot;font-size: 16px;&quot;&gt;&lt;b&gt;Data pool&lt;/b&gt;&lt;/span&gt;" style="rounded=0;whiteSpace=wrap;html=1;textDirection=vertical-rl;direction=west;flipV=1;flipH=1;arcSize=15;labelPosition=center;verticalLabelPosition=middle;align=center;verticalAlign=middle;labelBorderColor=none;rotation=180;fillColor=#e1d5e7;strokeColor=default;" parent="1" vertex="1">
          <mxGeometry x="78.25" y="1320" width="30" height="210" as="geometry" />
        </mxCell>
        <mxCell id="J0ch18TBqbvuwSnCmzGs-3" value="&lt;font style=&quot;font-size: 16px;&quot;&gt;&lt;b&gt;PU&lt;/b&gt;&lt;/font&gt;" style="whiteSpace=wrap;html=1;aspect=fixed;fillColor=#f8cecc;strokeColor=default;" parent="1" vertex="1">
          <mxGeometry x="183.25" y="1405" width="40" height="40" as="geometry" />
        </mxCell>
        <mxCell id="J0ch18TBqbvuwSnCmzGs-6" value="&lt;b&gt;&lt;font style=&quot;font-size: 18px;&quot;&gt;SISD&lt;/font&gt;&lt;/b&gt;" style="text;html=1;align=center;verticalAlign=middle;resizable=0;points=[];autosize=1;strokeColor=none;fillColor=none;" parent="1" vertex="1">
          <mxGeometry x="58.25" y="1215" width="70" height="40" as="geometry" />
        </mxCell>
        <mxCell id="J0ch18TBqbvuwSnCmzGs-24" style="edgeStyle=orthogonalEdgeStyle;rounded=0;orthogonalLoop=1;jettySize=auto;html=1;exitX=0.75;exitY=1;exitDx=0;exitDy=0;entryX=1;entryY=0.5;entryDx=0;entryDy=0;" parent="1" source="J0ch18TBqbvuwSnCmzGs-10" target="J0ch18TBqbvuwSnCmzGs-17" edge="1">
          <mxGeometry relative="1" as="geometry" />
        </mxCell>
        <mxCell id="J0ch18TBqbvuwSnCmzGs-10" value="&lt;font style=&quot;font-size: 16px;&quot;&gt;&lt;b&gt;Instruction pool&lt;/b&gt;&lt;/font&gt;" style="rounded=0;whiteSpace=wrap;html=1;fillColor=#d5e8d4;strokeColor=default;" parent="1" vertex="1">
          <mxGeometry x="560.25" y="1250" width="180" height="40" as="geometry" />
        </mxCell>
        <mxCell id="J0ch18TBqbvuwSnCmzGs-12" value="&lt;span style=&quot;font-size: 16px;&quot;&gt;&lt;b&gt;Data pool&lt;/b&gt;&lt;/span&gt;" style="rounded=0;whiteSpace=wrap;html=1;textDirection=vertical-rl;direction=west;flipV=1;flipH=1;arcSize=15;labelPosition=center;verticalLabelPosition=middle;align=center;verticalAlign=middle;labelBorderColor=none;rotation=180;fillColor=#e1d5e7;strokeColor=default;" parent="1" vertex="1">
          <mxGeometry x="495.25" y="1320" width="30" height="210" as="geometry" />
        </mxCell>
        <mxCell id="J0ch18TBqbvuwSnCmzGs-13" value="&lt;font style=&quot;font-size: 16px;&quot;&gt;&lt;b&gt;PU&lt;/b&gt;&lt;/font&gt;" style="whiteSpace=wrap;html=1;aspect=fixed;fillColor=#f8cecc;strokeColor=default;" parent="1" vertex="1">
          <mxGeometry x="603.25" y="1320" width="40" height="40" as="geometry" />
        </mxCell>
        <mxCell id="J0ch18TBqbvuwSnCmzGs-14" value="&lt;b&gt;&lt;font style=&quot;font-size: 18px;&quot;&gt;SIMD&lt;/font&gt;&lt;/b&gt;" style="text;html=1;align=center;verticalAlign=middle;resizable=0;points=[];autosize=1;strokeColor=none;fillColor=none;" parent="1" vertex="1">
          <mxGeometry x="475.25" y="1215" width="70" height="40" as="geometry" />
        </mxCell>
        <mxCell id="J0ch18TBqbvuwSnCmzGs-15" value="&lt;font style=&quot;font-size: 16px;&quot;&gt;&lt;b&gt;PU&lt;/b&gt;&lt;/font&gt;" style="whiteSpace=wrap;html=1;aspect=fixed;fillColor=#f8cecc;strokeColor=default;" parent="1" vertex="1">
          <mxGeometry x="603.25" y="1370" width="40" height="40" as="geometry" />
        </mxCell>
        <mxCell id="J0ch18TBqbvuwSnCmzGs-16" value="&lt;font style=&quot;font-size: 16px;&quot;&gt;&lt;b&gt;PU&lt;/b&gt;&lt;/font&gt;" style="whiteSpace=wrap;html=1;aspect=fixed;fillColor=#f8cecc;strokeColor=default;" parent="1" vertex="1">
          <mxGeometry x="603.25" y="1420" width="40" height="40" as="geometry" />
        </mxCell>
        <mxCell id="J0ch18TBqbvuwSnCmzGs-17" value="&lt;font style=&quot;font-size: 16px;&quot;&gt;&lt;b&gt;PU&lt;/b&gt;&lt;/font&gt;" style="whiteSpace=wrap;html=1;aspect=fixed;fillColor=#f8cecc;strokeColor=default;" parent="1" vertex="1">
          <mxGeometry x="603.25" y="1470" width="40" height="40" as="geometry" />
        </mxCell>
        <mxCell id="J0ch18TBqbvuwSnCmzGs-18" value="" style="endArrow=classic;html=1;rounded=0;entryX=0;entryY=0.5;entryDx=0;entryDy=0;exitX=0.012;exitY=0.905;exitDx=0;exitDy=0;exitPerimeter=0;" parent="1" source="J0ch18TBqbvuwSnCmzGs-12" target="J0ch18TBqbvuwSnCmzGs-13" edge="1">
          <mxGeometry width="50" height="50" relative="1" as="geometry">
            <mxPoint x="543.25" y="1420" as="sourcePoint" />
            <mxPoint x="593.25" y="1370" as="targetPoint" />
          </mxGeometry>
        </mxCell>
        <mxCell id="J0ch18TBqbvuwSnCmzGs-19" value="" style="endArrow=classic;html=1;rounded=0;entryX=0;entryY=0.5;entryDx=0;entryDy=0;exitX=-0.039;exitY=0.665;exitDx=0;exitDy=0;exitPerimeter=0;" parent="1" source="J0ch18TBqbvuwSnCmzGs-12" target="J0ch18TBqbvuwSnCmzGs-15" edge="1">
          <mxGeometry width="50" height="50" relative="1" as="geometry">
            <mxPoint x="543.25" y="1450" as="sourcePoint" />
            <mxPoint x="593.25" y="1400" as="targetPoint" />
          </mxGeometry>
        </mxCell>
        <mxCell id="J0ch18TBqbvuwSnCmzGs-21" value="" style="endArrow=classic;html=1;rounded=0;entryX=0;entryY=0.5;entryDx=0;entryDy=0;exitX=-0.019;exitY=0.429;exitDx=0;exitDy=0;exitPerimeter=0;" parent="1" source="J0ch18TBqbvuwSnCmzGs-12" target="J0ch18TBqbvuwSnCmzGs-16" edge="1">
          <mxGeometry width="50" height="50" relative="1" as="geometry">
            <mxPoint x="543.25" y="1500" as="sourcePoint" />
            <mxPoint x="593.25" y="1450" as="targetPoint" />
          </mxGeometry>
        </mxCell>
        <mxCell id="J0ch18TBqbvuwSnCmzGs-22" value="" style="endArrow=classic;html=1;rounded=0;entryX=0;entryY=0.5;entryDx=0;entryDy=0;exitX=-0.06;exitY=0.189;exitDx=0;exitDy=0;exitPerimeter=0;" parent="1" source="J0ch18TBqbvuwSnCmzGs-12" target="J0ch18TBqbvuwSnCmzGs-17" edge="1">
          <mxGeometry width="50" height="50" relative="1" as="geometry">
            <mxPoint x="533.25" y="1580" as="sourcePoint" />
            <mxPoint x="583.25" y="1530" as="targetPoint" />
          </mxGeometry>
        </mxCell>
        <mxCell id="J0ch18TBqbvuwSnCmzGs-25" value="" style="endArrow=classic;html=1;rounded=0;entryX=1;entryY=0.5;entryDx=0;entryDy=0;jumpStyle=none;" parent="1" target="J0ch18TBqbvuwSnCmzGs-16" edge="1">
          <mxGeometry width="50" height="50" relative="1" as="geometry">
            <mxPoint x="695" y="1440" as="sourcePoint" />
            <mxPoint x="770" y="1450" as="targetPoint" />
          </mxGeometry>
        </mxCell>
        <mxCell id="J0ch18TBqbvuwSnCmzGs-26" value="" style="endArrow=classic;html=1;rounded=0;entryX=1;entryY=0.5;entryDx=0;entryDy=0;jumpStyle=none;" parent="1" edge="1">
          <mxGeometry width="50" height="50" relative="1" as="geometry">
            <mxPoint x="696" y="1389.9" as="sourcePoint" />
            <mxPoint x="644" y="1389.9" as="targetPoint" />
          </mxGeometry>
        </mxCell>
        <mxCell id="J0ch18TBqbvuwSnCmzGs-27" value="" style="endArrow=classic;html=1;rounded=0;entryX=1;entryY=0.5;entryDx=0;entryDy=0;jumpStyle=none;" parent="1" edge="1">
          <mxGeometry width="50" height="50" relative="1" as="geometry">
            <mxPoint x="696" y="1339.9" as="sourcePoint" />
            <mxPoint x="644" y="1339.9" as="targetPoint" />
          </mxGeometry>
        </mxCell>
        <mxCell id="Vw3wWWG3iIXjHi7wflNl-12" value="" style="shape=flexArrow;endArrow=classic;html=1;rounded=0;" edge="1" parent="1">
          <mxGeometry width="50" height="50" relative="1" as="geometry">
            <mxPoint x="365" y="593.31" as="sourcePoint" />
            <mxPoint x="425" y="593.31" as="targetPoint" />
          </mxGeometry>
        </mxCell>
        <mxCell id="Vw3wWWG3iIXjHi7wflNl-13" value="&lt;font style=&quot;font-size: 14px;&quot;&gt;&lt;b&gt;乱序执行&lt;/b&gt;&lt;/font&gt;" style="text;html=1;align=center;verticalAlign=middle;resizable=0;points=[];autosize=1;strokeColor=none;fillColor=none;" vertex="1" parent="1">
          <mxGeometry x="353.25" y="537.31" width="80" height="30" as="geometry" />
        </mxCell>
      </root>
    </mxGraphModel>
  </diagram>
</mxfile>
